<svg width="192" height="192" viewBox="0 0 192 192" fill="none" xmlns="http://www.w3.org/2000/svg">
  <rect width="192" height="192" rx="40" fill="#18181b"/>
  <path d="M96 40C69.49 40 48 61.49 48 88C48 114.51 69.49 136 96 136C122.51 136 144 114.51 144 88C144 61.49 122.51 40 96 40Z" fill="#fafafa"/>
  <path d="M96 56C78.33 56 64 70.33 64 88C64 105.67 78.33 120 96 120C113.67 120 128 105.67 128 88C128 70.33 113.67 56 96 56Z" fill="#18181b"/>
  <path d="M96 68C85.51 68 77 76.51 77 87C77 97.49 85.51 106 96 106C106.49 106 115 97.49 115 87C115 76.51 106.49 68 96 68Z" fill="#fafafa"/>
  <path d="M88 84L104 88L88 92V84Z" fill="#18181b"/>
</svg>
